<?xml version="1.0" encoding="utf-8"?>
<!-- Generator: Adobe Illustrator 19.1.0, SVG Export Plug-In . SVG Version: 6.00 Build 0)  -->
<svg version="1.1" id="Layer_1" xmlns="http://www.w3.org/2000/svg" xmlns:xlink="http://www.w3.org/1999/xlink" x="0px" y="0px"
	 viewBox="81 287.3 22 22" style="enable-background:new 81 287.3 22 22;" xml:space="preserve">
<g>
	<g>
		<g>
			<g>
				<g>
					<g>
						<path d="M101.4,303.5c-0.6-0.9-2.6-1.5-4.6-2.3c-2-0.8-2.5-1.1-2.5-1.1l0-1.9c0,0,0.7-0.6,1-2.3c0.5,0.1,1-0.7,1-1.1
							c0-0.4-0.1-1.6-0.6-1.4c0.1-0.9,0.2-1.6,0.2-2c-0.1-1.5-1.7-3.1-4-3.1c-2.3,0-3.8,1.6-4,3.1c0,0.4,0,1.2,0.2,2
							c-0.6-0.1-0.7,1-0.6,1.4c0,0.4,0.5,1.2,1,1.1c0.2,1.8,1,2.3,1,2.3l0,1.9c0,0-0.5,0.3-2.5,1.1c-2,0.8-4,1.4-4.6,2.3
							c-0.5,0.8-0.4,4.8-0.4,4.8h10h10C101.7,308.3,101.9,304.3,101.4,303.5z"/>
					</g>
				</g>
			</g>
		</g>
	</g>
</g>
</svg>
