<?xml version="1.0" encoding="utf-8"?>
<!-- Generator: Adobe Illustrator 19.1.0, SVG Export Plug-In . SVG Version: 6.00 Build 0)  -->
<svg version="1.1" id="Layer_1" xmlns="http://www.w3.org/2000/svg" xmlns:xlink="http://www.w3.org/1999/xlink" x="0px" y="0px"
	 viewBox="80 286.3 24 24" style="enable-background:new 80 286.3 24 24;" xml:space="preserve">
<style type="text/css">
	.st0{opacity:0.62;}
</style>
<g>
	<g class="st0">
		<g>
			<path d="M91.1,303.4c-0.3-0.5-1.4-0.9-2.5-1.4c-1.1-0.4-1.3-0.7-1.3-0.7l0-1c0,0,0.4-0.3,0.5-1.3c0.3,0.1,0.5-0.4,0.5-0.6
				c0-0.2,0-0.8-0.3-0.8c0.1-0.5,0.1-0.9,0.1-1.1c-0.1-0.8-0.9-1.7-2.1-1.7c-1.2,0-2.1,0.9-2.1,1.7c0,0.2,0,0.6,0.1,1.1
				c-0.3-0.1-0.4,0.6-0.3,0.8c0,0.2,0.3,0.7,0.5,0.6c0.1,0.9,0.5,1.3,0.5,1.3l0,1c0,0-0.3,0.2-1.3,0.6c-1.1,0.4-2.2,1-2.5,1.5
				c-0.3,0.4-0.2,2.8-0.2,2.8h5.4h5.4C91.3,306.3,91.4,303.9,91.1,303.4z"/>
		</g>
	</g>
	<g class="st0">
		<g>
			<path d="M102.3,303.5c-0.3-0.5-1.4-0.9-2.5-1.4c-1.1-0.4-1.3-0.7-1.3-0.7l0-1c0,0,0.4-0.3,0.5-1.3c0.3,0.1,0.5-0.4,0.5-0.6
				c0-0.2,0-0.8-0.3-0.8c0.1-0.5,0.1-0.9,0.1-1.1c-0.1-0.8-0.9-1.7-2.1-1.7c-1.3,0-2.1,0.9-2.1,1.7c0,0.2,0,0.6,0.1,1.1
				c-0.3-0.1-0.4,0.6-0.3,0.8c0,0.2,0.3,0.7,0.5,0.6c0.1,1,0.5,1.3,0.5,1.3l0,1c0,0-0.3,0.2-1.3,0.6c-1.1,0.4-2.2,1-2.5,1.5
				c-0.3,0.4-0.2,2.8-0.2,2.8h5.4h5.4C102.5,306.3,102.6,303.9,102.3,303.5z"/>
		</g>
	</g>
	<g>
		<g>
			<path d="M98.2,302.7c-0.4-0.6-1.8-1.2-3.2-1.7c-1.4-0.6-1.7-0.8-1.7-0.8l0-1.3c0,0,0.5-0.4,0.7-1.6c0.3,0.1,0.7-0.5,0.7-0.8
				c0-0.3,0-1.1-0.4-1c0.1-0.6,0.1-1.1,0.1-1.4c-0.1-1-1.1-2.1-2.8-2.1c-1.6,0-2.7,1.1-2.8,2.1c0,0.3,0,0.8,0.1,1.4
				c-0.4-0.1-0.5,0.7-0.4,1c0,0.3,0.4,0.9,0.7,0.8c0.2,1.2,0.7,1.6,0.7,1.6l0,1.3c0,0-0.3,0.2-1.7,0.8c-1.4,0.6-2.8,1.2-3.2,1.9
				c-0.4,0.6-0.3,3.6-0.3,3.6h6.9h6.9C98.5,306.3,98.6,303.3,98.2,302.7z"/>
		</g>
	</g>
</g>
</svg>
