<?xml version="1.0" encoding="utf-8"?>
<!-- Generator: Adobe Illustrator 19.1.0, SVG Export Plug-In . SVG Version: 6.00 Build 0)  -->
<svg version="1.1" id="Layer_1" xmlns="http://www.w3.org/2000/svg" xmlns:xlink="http://www.w3.org/1999/xlink" x="0px" y="0px"
	 viewBox="81 287.3 22 22" style="enable-background:new 81 287.3 22 22;" xml:space="preserve">
<path d="M102,298.9v-2.2l-0.3-0.1l-2.4-0.8l-0.6-1.5l1.2-2.6l-1.6-1.6l-0.3,0.1l-2.2,1.1l-1.5-0.6l-1-2.6h-2.2l-0.1,0.2l-0.8,2.3
	l-1.5,0.6l-2.6-1.2l-1.6,1.6l0.1,0.3l1.1,2.2l-0.9,1.5l-2.9,1v2.2l0.5,0.1l2.5,0.8l0.7,1.5l-1.2,2.6l1.6,1.6l0.3-0.1l2.2-1.1l1.5,1
	l1,3h2.2l0.1-0.6l0.8-2.5l1.5-0.7l2.6,1.2l1.6-1.6l-0.1-0.3l-1.1-2.2l0.7-1.5L102,298.9z M92.2,301c-1.7,0-3.1-1.4-3.1-3.1
	c0-1.7,1.4-3.1,3.1-3.1c1.7,0,3.1,1.4,3.1,3.1C95.3,299.6,93.9,301,92.2,301"/>
</svg>
